<mxfile host="app.diagrams.net" modified="2023-03-21T17:10:02.010Z" agent="5.0 (Windows NT 10.0; Win64; x64) AppleWebKit/537.36 (KHTML, like Gecko) Chrome/109.0.0.0 Safari/537.36 OPR/95.0.0.0" etag="Ql1TnM8T0LoC4OkBN9ar" version="21.0.6" type="github">
  <diagram id="tuKGfG5eKeDsHUazF-pp" name="Страница 1">
    <mxGraphModel dx="1027" dy="772" grid="1" gridSize="10" guides="1" tooltips="1" connect="1" arrows="1" fold="1" page="1" pageScale="1" pageWidth="827" pageHeight="1169" math="0" shadow="0">
      <root>
        <mxCell id="0" />
        <mxCell id="1" parent="0" />
        <mxCell id="JLdi7RP3N2sEZm00f1cI-3" value=":Система" style="shape=umlLifeline;perimeter=lifelinePerimeter;whiteSpace=wrap;html=1;container=1;collapsible=0;recursiveResize=0;outlineConnect=0;" parent="1" vertex="1">
          <mxGeometry x="80" y="285" width="100" height="300" as="geometry" />
        </mxCell>
        <mxCell id="JLdi7RP3N2sEZm00f1cI-4" value="" style="html=1;points=[];perimeter=orthogonalPerimeter;" parent="JLdi7RP3N2sEZm00f1cI-3" vertex="1">
          <mxGeometry x="45" y="85" width="10" height="195" as="geometry" />
        </mxCell>
        <mxCell id="JLdi7RP3N2sEZm00f1cI-5" value="добавитьВУчет(книга)" style="html=1;verticalAlign=bottom;startArrow=oval;startFill=1;endArrow=block;startSize=8;rounded=0;entryX=0;entryY=0.036;entryDx=0;entryDy=0;entryPerimeter=0;" parent="1" target="JLdi7RP3N2sEZm00f1cI-4" edge="1">
          <mxGeometry x="-0.3848" y="17" width="60" relative="1" as="geometry">
            <mxPoint x="60" y="377" as="sourcePoint" />
            <mxPoint x="160" y="380" as="targetPoint" />
            <mxPoint as="offset" />
          </mxGeometry>
        </mxCell>
        <mxCell id="JLdi7RP3N2sEZm00f1cI-6" value=":Система добавления книг" style="shape=umlLifeline;perimeter=lifelinePerimeter;whiteSpace=wrap;html=1;container=1;collapsible=0;recursiveResize=0;outlineConnect=0;" parent="1" vertex="1">
          <mxGeometry x="240" y="285" width="100" height="300" as="geometry" />
        </mxCell>
        <mxCell id="JLdi7RP3N2sEZm00f1cI-8" value="" style="html=1;points=[];perimeter=orthogonalPerimeter;" parent="JLdi7RP3N2sEZm00f1cI-6" vertex="1">
          <mxGeometry x="45" y="95" width="10" height="65" as="geometry" />
        </mxCell>
        <mxCell id="JLdi7RP3N2sEZm00f1cI-7" value=":Система списания книг" style="shape=umlLifeline;perimeter=lifelinePerimeter;whiteSpace=wrap;html=1;container=1;collapsible=0;recursiveResize=0;outlineConnect=0;" parent="1" vertex="1">
          <mxGeometry x="360" y="285" width="100" height="300" as="geometry" />
        </mxCell>
        <mxCell id="JLdi7RP3N2sEZm00f1cI-11" value="" style="html=1;points=[];perimeter=orthogonalPerimeter;" parent="JLdi7RP3N2sEZm00f1cI-7" vertex="1">
          <mxGeometry x="44" y="175" width="10" height="95" as="geometry" />
        </mxCell>
        <mxCell id="JLdi7RP3N2sEZm00f1cI-9" value="добавитьКнигу(книга)" style="html=1;verticalAlign=bottom;endArrow=block;rounded=0;exitX=1.2;exitY=0.087;exitDx=0;exitDy=0;exitPerimeter=0;entryX=0;entryY=0.077;entryDx=0;entryDy=0;entryPerimeter=0;" parent="1" source="JLdi7RP3N2sEZm00f1cI-4" target="JLdi7RP3N2sEZm00f1cI-8" edge="1">
          <mxGeometry width="80" relative="1" as="geometry">
            <mxPoint x="180" y="380" as="sourcePoint" />
            <mxPoint x="260" y="380" as="targetPoint" />
          </mxGeometry>
        </mxCell>
        <mxCell id="JLdi7RP3N2sEZm00f1cI-12" value="списатьКнигу(книга)" style="html=1;verticalAlign=bottom;endArrow=block;rounded=0;entryX=0;entryY=0.147;entryDx=0;entryDy=0;entryPerimeter=0;exitX=1.2;exitY=0.092;exitDx=0;exitDy=0;exitPerimeter=0;" parent="1" source="JLdi7RP3N2sEZm00f1cI-4" target="JLdi7RP3N2sEZm00f1cI-11" edge="1">
          <mxGeometry x="-0.5582" y="9" width="80" relative="1" as="geometry">
            <mxPoint x="230" y="480" as="sourcePoint" />
            <mxPoint x="560" y="400" as="targetPoint" />
            <mxPoint as="offset" />
            <Array as="points">
              <mxPoint x="240" y="472" />
            </Array>
          </mxGeometry>
        </mxCell>
        <mxCell id="JLdi7RP3N2sEZm00f1cI-13" value=":База данных" style="shape=umlLifeline;perimeter=lifelinePerimeter;whiteSpace=wrap;html=1;container=1;collapsible=0;recursiveResize=0;outlineConnect=0;" parent="1" vertex="1">
          <mxGeometry x="530" y="285" width="100" height="300" as="geometry" />
        </mxCell>
        <mxCell id="FKkt8DUy-5Z0HEHGqQdj-4" value="" style="html=1;points=[];perimeter=orthogonalPerimeter;" parent="JLdi7RP3N2sEZm00f1cI-13" vertex="1">
          <mxGeometry x="45" y="95" width="10" height="55" as="geometry" />
        </mxCell>
        <mxCell id="FKkt8DUy-5Z0HEHGqQdj-8" value="добавитьКнигуВБазу(книга)" style="html=1;verticalAlign=bottom;endArrow=block;rounded=0;exitX=1.2;exitY=0.175;exitDx=0;exitDy=0;exitPerimeter=0;entryX=1.2;entryY=0.613;entryDx=0;entryDy=0;entryPerimeter=0;" parent="JLdi7RP3N2sEZm00f1cI-13" source="FKkt8DUy-5Z0HEHGqQdj-4" target="FKkt8DUy-5Z0HEHGqQdj-4" edge="1">
          <mxGeometry x="-0.2666" y="32" width="80" relative="1" as="geometry">
            <mxPoint x="120" y="125" as="sourcePoint" />
            <mxPoint x="200" y="125" as="targetPoint" />
            <Array as="points">
              <mxPoint x="90" y="105" />
              <mxPoint x="90" y="129" />
            </Array>
            <mxPoint x="-2" y="-10" as="offset" />
          </mxGeometry>
        </mxCell>
        <mxCell id="FKkt8DUy-5Z0HEHGqQdj-10" value="" style="html=1;points=[];perimeter=orthogonalPerimeter;" parent="JLdi7RP3N2sEZm00f1cI-13" vertex="1">
          <mxGeometry x="45" y="195" width="10" height="55" as="geometry" />
        </mxCell>
        <mxCell id="FKkt8DUy-5Z0HEHGqQdj-11" value="списатьКнигуИзБазы(книга)" style="html=1;verticalAlign=bottom;endArrow=block;rounded=0;exitX=1.2;exitY=0.175;exitDx=0;exitDy=0;exitPerimeter=0;entryX=1.2;entryY=0.613;entryDx=0;entryDy=0;entryPerimeter=0;" parent="JLdi7RP3N2sEZm00f1cI-13" source="FKkt8DUy-5Z0HEHGqQdj-10" target="FKkt8DUy-5Z0HEHGqQdj-10" edge="1">
          <mxGeometry x="-0.2666" y="32" width="80" relative="1" as="geometry">
            <mxPoint x="-360" y="-60" as="sourcePoint" />
            <mxPoint x="-280" y="-60" as="targetPoint" />
            <Array as="points">
              <mxPoint x="90" y="205" />
              <mxPoint x="90" y="229" />
            </Array>
            <mxPoint x="-2" y="-10" as="offset" />
          </mxGeometry>
        </mxCell>
        <mxCell id="FKkt8DUy-5Z0HEHGqQdj-5" value="запроситьДобавлениеКниги(книга)" style="html=1;verticalAlign=bottom;endArrow=block;rounded=0;exitX=1;exitY=0.052;exitDx=0;exitDy=0;exitPerimeter=0;entryX=0.1;entryY=0.088;entryDx=0;entryDy=0;entryPerimeter=0;" parent="1" source="JLdi7RP3N2sEZm00f1cI-8" target="FKkt8DUy-5Z0HEHGqQdj-4" edge="1">
          <mxGeometry width="80" relative="1" as="geometry">
            <mxPoint x="370" y="480" as="sourcePoint" />
            <mxPoint x="510" y="388" as="targetPoint" />
          </mxGeometry>
        </mxCell>
        <mxCell id="FKkt8DUy-5Z0HEHGqQdj-9" value="подтвердитьДобавление()" style="html=1;verticalAlign=bottom;endArrow=open;dashed=1;endSize=8;rounded=0;exitX=0.1;exitY=0.909;exitDx=0;exitDy=0;exitPerimeter=0;entryX=1;entryY=0.738;entryDx=0;entryDy=0;entryPerimeter=0;" parent="1" source="FKkt8DUy-5Z0HEHGqQdj-4" target="JLdi7RP3N2sEZm00f1cI-8" edge="1">
          <mxGeometry x="-0.4286" y="-10" relative="1" as="geometry">
            <mxPoint x="460" y="670" as="sourcePoint" />
            <mxPoint x="300" y="430" as="targetPoint" />
            <Array as="points" />
            <mxPoint as="offset" />
          </mxGeometry>
        </mxCell>
        <mxCell id="FKkt8DUy-5Z0HEHGqQdj-12" value="запроситьСписаниеКниги(книга)" style="html=1;verticalAlign=bottom;endArrow=block;rounded=0;entryX=0.1;entryY=0.109;entryDx=0;entryDy=0;entryPerimeter=0;exitX=0.54;exitY=0.673;exitDx=0;exitDy=0;exitPerimeter=0;" parent="1" source="JLdi7RP3N2sEZm00f1cI-7" target="FKkt8DUy-5Z0HEHGqQdj-10" edge="1">
          <mxGeometry width="80" relative="1" as="geometry">
            <mxPoint x="420" y="490" as="sourcePoint" />
            <mxPoint x="450" y="480" as="targetPoint" />
          </mxGeometry>
        </mxCell>
        <mxCell id="FKkt8DUy-5Z0HEHGqQdj-13" value="подтвердитьСписание()" style="html=1;verticalAlign=bottom;endArrow=open;dashed=1;endSize=8;rounded=0;exitX=-0.2;exitY=0.8;exitDx=0;exitDy=0;exitPerimeter=0;entryX=1;entryY=0.663;entryDx=0;entryDy=0;entryPerimeter=0;" parent="1" source="FKkt8DUy-5Z0HEHGqQdj-10" target="JLdi7RP3N2sEZm00f1cI-11" edge="1">
          <mxGeometry relative="1" as="geometry">
            <mxPoint x="450" y="480" as="sourcePoint" />
            <mxPoint x="370" y="480" as="targetPoint" />
          </mxGeometry>
        </mxCell>
        <mxCell id="FKkt8DUy-5Z0HEHGqQdj-14" value="подтвердитьДобавление()" style="html=1;verticalAlign=bottom;endArrow=open;dashed=1;endSize=8;rounded=0;exitX=-0.3;exitY=0.923;exitDx=0;exitDy=0;exitPerimeter=0;entryX=1.3;entryY=0.369;entryDx=0;entryDy=0;entryPerimeter=0;" parent="1" source="JLdi7RP3N2sEZm00f1cI-8" target="JLdi7RP3N2sEZm00f1cI-4" edge="1">
          <mxGeometry x="0.0036" y="19" relative="1" as="geometry">
            <mxPoint x="250" y="660" as="sourcePoint" />
            <mxPoint x="170" y="660" as="targetPoint" />
            <mxPoint as="offset" />
          </mxGeometry>
        </mxCell>
        <mxCell id="FKkt8DUy-5Z0HEHGqQdj-15" value="подтвердитьСписание()" style="html=1;verticalAlign=bottom;endArrow=open;dashed=1;endSize=8;rounded=0;exitX=0;exitY=0.874;exitDx=0;exitDy=0;exitPerimeter=0;entryX=1.2;entryY=0.892;entryDx=0;entryDy=0;entryPerimeter=0;" parent="1" source="JLdi7RP3N2sEZm00f1cI-11" target="JLdi7RP3N2sEZm00f1cI-4" edge="1">
          <mxGeometry x="0.0007" y="-13" relative="1" as="geometry">
            <mxPoint x="320" y="690" as="sourcePoint" />
            <mxPoint x="240" y="690" as="targetPoint" />
            <mxPoint as="offset" />
          </mxGeometry>
        </mxCell>
        <mxCell id="FKkt8DUy-5Z0HEHGqQdj-19" value="подтвердитьУчет()" style="html=1;verticalAlign=bottom;endArrow=open;dashed=1;endSize=8;rounded=0;exitX=0;exitY=0.979;exitDx=0;exitDy=0;exitPerimeter=0;entryX=1.15;entryY=0.575;entryDx=0;entryDy=0;entryPerimeter=0;" parent="1" source="JLdi7RP3N2sEZm00f1cI-4" target="FKkt8DUy-5Z0HEHGqQdj-20" edge="1">
          <mxGeometry x="0.47" y="-10" relative="1" as="geometry">
            <mxPoint x="120" y="560" as="sourcePoint" />
            <mxPoint x="50" y="560" as="targetPoint" />
            <mxPoint as="offset" />
          </mxGeometry>
        </mxCell>
        <mxCell id="FKkt8DUy-5Z0HEHGqQdj-20" value="" style="shape=waypoint;sketch=0;fillStyle=solid;size=6;pointerEvents=1;points=[];fillColor=none;resizable=0;rotatable=0;perimeter=centerPerimeter;snapToPoint=1;" parent="1" vertex="1">
          <mxGeometry x="20" y="540" width="40" height="40" as="geometry" />
        </mxCell>
        <mxCell id="FKkt8DUy-5Z0HEHGqQdj-25" value="" style="shape=waypoint;sketch=0;fillStyle=solid;size=6;pointerEvents=1;points=[];fillColor=none;resizable=0;rotatable=0;perimeter=centerPerimeter;snapToPoint=1;" parent="1" vertex="1">
          <mxGeometry x="374" y="750" width="40" height="40" as="geometry" />
        </mxCell>
        <mxCell id="FKkt8DUy-5Z0HEHGqQdj-26" value=":Система" style="html=1;" parent="1" vertex="1">
          <mxGeometry x="339" y="870" width="110" height="50" as="geometry" />
        </mxCell>
        <mxCell id="FKkt8DUy-5Z0HEHGqQdj-27" value="" style="endArrow=none;html=1;rounded=0;exitX=0.5;exitY=0;exitDx=0;exitDy=0;entryX=0.525;entryY=1.075;entryDx=0;entryDy=0;entryPerimeter=0;" parent="1" source="FKkt8DUy-5Z0HEHGqQdj-26" target="FKkt8DUy-5Z0HEHGqQdj-25" edge="1">
          <mxGeometry width="50" height="50" relative="1" as="geometry">
            <mxPoint x="390" y="700" as="sourcePoint" />
            <mxPoint x="440" y="650" as="targetPoint" />
          </mxGeometry>
        </mxCell>
        <mxCell id="FKkt8DUy-5Z0HEHGqQdj-28" value="1. добавитьВУчет(книга)" style="html=1;verticalAlign=bottom;endArrow=block;rounded=0;" parent="1" edge="1">
          <mxGeometry x="-0.5" y="-40" width="80" relative="1" as="geometry">
            <mxPoint x="380" y="810" as="sourcePoint" />
            <mxPoint x="380" y="850" as="targetPoint" />
            <mxPoint as="offset" />
          </mxGeometry>
        </mxCell>
        <mxCell id="FKkt8DUy-5Z0HEHGqQdj-29" value="12. подтвердитьУчет()" style="html=1;verticalAlign=bottom;endArrow=open;dashed=1;endSize=8;rounded=0;" parent="1" edge="1">
          <mxGeometry x="0.2" y="-70" relative="1" as="geometry">
            <mxPoint x="410" y="850" as="sourcePoint" />
            <mxPoint x="410" y="800" as="targetPoint" />
            <mxPoint as="offset" />
          </mxGeometry>
        </mxCell>
        <mxCell id="FKkt8DUy-5Z0HEHGqQdj-30" value=":Система &lt;br&gt;добавления книг" style="html=1;" parent="1" vertex="1">
          <mxGeometry x="125" y="1000" width="110" height="50" as="geometry" />
        </mxCell>
        <mxCell id="FKkt8DUy-5Z0HEHGqQdj-31" value="" style="endArrow=none;html=1;rounded=0;exitX=0.5;exitY=0;exitDx=0;exitDy=0;entryX=0;entryY=0.5;entryDx=0;entryDy=0;" parent="1" source="FKkt8DUy-5Z0HEHGqQdj-30" target="FKkt8DUy-5Z0HEHGqQdj-26" edge="1">
          <mxGeometry width="50" height="50" relative="1" as="geometry">
            <mxPoint x="180" y="960" as="sourcePoint" />
            <mxPoint x="230" y="910" as="targetPoint" />
          </mxGeometry>
        </mxCell>
        <mxCell id="FKkt8DUy-5Z0HEHGqQdj-32" value=":База данных" style="html=1;" parent="1" vertex="1">
          <mxGeometry x="298.5" y="1200" width="191" height="100" as="geometry" />
        </mxCell>
        <mxCell id="FKkt8DUy-5Z0HEHGqQdj-33" value="" style="endArrow=none;html=1;rounded=0;entryX=0.5;entryY=1;entryDx=0;entryDy=0;exitX=0;exitY=0.5;exitDx=0;exitDy=0;" parent="1" source="FKkt8DUy-5Z0HEHGqQdj-32" target="FKkt8DUy-5Z0HEHGqQdj-30" edge="1">
          <mxGeometry width="50" height="50" relative="1" as="geometry">
            <mxPoint x="170" y="1210" as="sourcePoint" />
            <mxPoint x="220" y="1160" as="targetPoint" />
          </mxGeometry>
        </mxCell>
        <mxCell id="FKkt8DUy-5Z0HEHGqQdj-35" value="" style="endArrow=none;html=1;rounded=0;edgeStyle=orthogonalEdgeStyle;curved=1;exitX=0.071;exitY=1;exitDx=0;exitDy=0;exitPerimeter=0;entryX=0.406;entryY=1.03;entryDx=0;entryDy=0;entryPerimeter=0;" parent="1" source="FKkt8DUy-5Z0HEHGqQdj-32" target="FKkt8DUy-5Z0HEHGqQdj-32" edge="1">
          <mxGeometry width="50" height="50" relative="1" as="geometry">
            <mxPoint x="330" y="1410" as="sourcePoint" />
            <mxPoint x="360" y="1400" as="targetPoint" />
            <Array as="points">
              <mxPoint x="312" y="1370" />
              <mxPoint x="376" y="1370" />
            </Array>
          </mxGeometry>
        </mxCell>
        <mxCell id="FKkt8DUy-5Z0HEHGqQdj-36" value="" style="endArrow=none;html=1;rounded=0;edgeStyle=orthogonalEdgeStyle;curved=1;exitX=0.552;exitY=0.99;exitDx=0;exitDy=0;exitPerimeter=0;entryX=0.903;entryY=1.03;entryDx=0;entryDy=0;entryPerimeter=0;" parent="1" source="FKkt8DUy-5Z0HEHGqQdj-32" target="FKkt8DUy-5Z0HEHGqQdj-32" edge="1">
          <mxGeometry width="50" height="50" relative="1" as="geometry">
            <mxPoint x="414.0009999999999" y="1310" as="sourcePoint" />
            <mxPoint x="477.98600000000005" y="1313" as="targetPoint" />
            <Array as="points">
              <mxPoint x="404" y="1370" />
              <mxPoint x="470" y="1370" />
            </Array>
          </mxGeometry>
        </mxCell>
        <mxCell id="FKkt8DUy-5Z0HEHGqQdj-37" value=":Система &lt;br&gt;Списания книг" style="html=1;" parent="1" vertex="1">
          <mxGeometry x="540" y="1000" width="110" height="50" as="geometry" />
        </mxCell>
        <mxCell id="FKkt8DUy-5Z0HEHGqQdj-38" value="" style="endArrow=none;html=1;rounded=0;curved=1;exitX=1;exitY=0.5;exitDx=0;exitDy=0;entryX=0.5;entryY=1;entryDx=0;entryDy=0;" parent="1" source="FKkt8DUy-5Z0HEHGqQdj-32" target="FKkt8DUy-5Z0HEHGqQdj-37" edge="1">
          <mxGeometry width="50" height="50" relative="1" as="geometry">
            <mxPoint x="390" y="1110" as="sourcePoint" />
            <mxPoint x="440" y="1060" as="targetPoint" />
          </mxGeometry>
        </mxCell>
        <mxCell id="FKkt8DUy-5Z0HEHGqQdj-39" value="" style="endArrow=none;html=1;rounded=0;curved=1;exitX=0.5;exitY=0;exitDx=0;exitDy=0;entryX=1;entryY=0.5;entryDx=0;entryDy=0;" parent="1" source="FKkt8DUy-5Z0HEHGqQdj-37" target="FKkt8DUy-5Z0HEHGqQdj-26" edge="1">
          <mxGeometry width="50" height="50" relative="1" as="geometry">
            <mxPoint x="570" y="960" as="sourcePoint" />
            <mxPoint x="620" y="910" as="targetPoint" />
          </mxGeometry>
        </mxCell>
        <mxCell id="FKkt8DUy-5Z0HEHGqQdj-40" value="2. добавитьКнигу(книга)" style="html=1;verticalAlign=bottom;endArrow=block;rounded=0;curved=1;" parent="1" edge="1">
          <mxGeometry x="0.9231" y="-22" width="80" relative="1" as="geometry">
            <mxPoint x="280" y="920" as="sourcePoint" />
            <mxPoint x="220" y="960" as="targetPoint" />
            <mxPoint as="offset" />
          </mxGeometry>
        </mxCell>
        <mxCell id="FKkt8DUy-5Z0HEHGqQdj-41" value="3. запроситьДобавлениеКниги(книга)" style="html=1;verticalAlign=bottom;endArrow=block;rounded=0;curved=1;" parent="1" edge="1">
          <mxGeometry x="-0.3034" y="-79" width="80" relative="1" as="geometry">
            <mxPoint x="180" y="1100" as="sourcePoint" />
            <mxPoint x="230" y="1180" as="targetPoint" />
            <mxPoint as="offset" />
          </mxGeometry>
        </mxCell>
        <mxCell id="FKkt8DUy-5Z0HEHGqQdj-42" value="4. добавитьКнигуВБазу(книга)" style="html=1;verticalAlign=bottom;endArrow=block;rounded=0;curved=1;" parent="1" edge="1">
          <mxGeometry x="-1" y="-20" width="80" relative="1" as="geometry">
            <mxPoint x="298.5" y="1390" as="sourcePoint" />
            <mxPoint x="378.5" y="1390" as="targetPoint" />
            <mxPoint as="offset" />
          </mxGeometry>
        </mxCell>
        <mxCell id="FKkt8DUy-5Z0HEHGqQdj-43" value="5. подтвердитьДобавление()" style="html=1;verticalAlign=bottom;endArrow=open;dashed=1;endSize=8;rounded=0;curved=1;" parent="1" edge="1">
          <mxGeometry x="-0.7538" y="-63" relative="1" as="geometry">
            <mxPoint x="270" y="1160" as="sourcePoint" />
            <mxPoint x="230" y="1090" as="targetPoint" />
            <mxPoint as="offset" />
          </mxGeometry>
        </mxCell>
        <mxCell id="FKkt8DUy-5Z0HEHGqQdj-44" value="6. подтвердитьДобавление()" style="html=1;verticalAlign=bottom;endArrow=open;dashed=1;endSize=8;rounded=0;curved=1;" parent="1" edge="1">
          <mxGeometry x="0.8919" y="-58" relative="1" as="geometry">
            <mxPoint x="240" y="980" as="sourcePoint" />
            <mxPoint x="310" y="930" as="targetPoint" />
            <mxPoint as="offset" />
          </mxGeometry>
        </mxCell>
        <mxCell id="FKkt8DUy-5Z0HEHGqQdj-45" value="7. списатьКнигу(книга)" style="html=1;verticalAlign=bottom;endArrow=block;rounded=0;curved=1;" parent="1" edge="1">
          <mxGeometry x="0.52" y="32" width="80" relative="1" as="geometry">
            <mxPoint x="480" y="900" as="sourcePoint" />
            <mxPoint x="560" y="960" as="targetPoint" />
            <mxPoint as="offset" />
          </mxGeometry>
        </mxCell>
        <mxCell id="FKkt8DUy-5Z0HEHGqQdj-46" value="8. запроситьСписаниеКниги(книга)" style="html=1;verticalAlign=bottom;endArrow=block;rounded=0;curved=1;" parent="1" edge="1">
          <mxGeometry x="0.0137" y="83" width="80" relative="1" as="geometry">
            <mxPoint x="590" y="1090" as="sourcePoint" />
            <mxPoint x="540" y="1200" as="targetPoint" />
            <mxPoint as="offset" />
          </mxGeometry>
        </mxCell>
        <mxCell id="FKkt8DUy-5Z0HEHGqQdj-47" value="9. списатьКнигуИзБазы(книга)" style="html=1;verticalAlign=bottom;endArrow=block;rounded=0;curved=1;" parent="1" edge="1">
          <mxGeometry y="-20" width="80" relative="1" as="geometry">
            <mxPoint x="420" y="1390" as="sourcePoint" />
            <mxPoint x="500" y="1390" as="targetPoint" />
            <mxPoint as="offset" />
          </mxGeometry>
        </mxCell>
        <mxCell id="FKkt8DUy-5Z0HEHGqQdj-48" value="10. подтвердитьСписание()" style="html=1;verticalAlign=bottom;endArrow=open;dashed=1;endSize=8;rounded=0;curved=1;" parent="1" edge="1">
          <mxGeometry x="-0.76" y="63" relative="1" as="geometry">
            <mxPoint x="500" y="1180" as="sourcePoint" />
            <mxPoint x="550" y="1080" as="targetPoint" />
            <mxPoint x="1" as="offset" />
          </mxGeometry>
        </mxCell>
        <mxCell id="FKkt8DUy-5Z0HEHGqQdj-49" value="11. подтвердитьСписание()" style="html=1;verticalAlign=bottom;endArrow=open;dashed=1;endSize=8;rounded=0;curved=1;" parent="1" edge="1">
          <mxGeometry x="-0.5135" y="40" relative="1" as="geometry">
            <mxPoint x="530" y="980" as="sourcePoint" />
            <mxPoint x="460" y="930" as="targetPoint" />
            <mxPoint as="offset" />
          </mxGeometry>
        </mxCell>
        <mxCell id="aZN-3JPKK4wE17QASu8p-5" value="а:Студент" style="shape=umlActor;verticalLabelPosition=bottom;verticalAlign=top;html=1;" parent="1" vertex="1">
          <mxGeometry x="115" y="1670" width="30" height="60" as="geometry" />
        </mxCell>
        <mxCell id="aZN-3JPKK4wE17QASu8p-6" value="" style="endArrow=none;dashed=1;html=1;rounded=0;" parent="1" edge="1">
          <mxGeometry width="50" height="50" relative="1" as="geometry">
            <mxPoint x="130" y="1980" as="sourcePoint" />
            <mxPoint x="130" y="1760" as="targetPoint" />
          </mxGeometry>
        </mxCell>
        <mxCell id="aZN-3JPKK4wE17QASu8p-9" value="" style="html=1;points=[];perimeter=orthogonalPerimeter;outlineConnect=0;targetShapes=umlLifeline;portConstraint=eastwest;newEdgeStyle={&quot;edgeStyle&quot;:&quot;elbowEdgeStyle&quot;,&quot;elbow&quot;:&quot;vertical&quot;,&quot;curved&quot;:0,&quot;rounded&quot;:0};" parent="1" vertex="1">
          <mxGeometry x="125" y="1760" width="10" height="220" as="geometry" />
        </mxCell>
        <mxCell id="aZN-3JPKK4wE17QASu8p-10" value="b:Семинар курса" style="shape=umlLifeline;perimeter=lifelinePerimeter;whiteSpace=wrap;html=1;container=1;dropTarget=0;collapsible=0;recursiveResize=0;outlineConnect=0;portConstraint=eastwest;newEdgeStyle={&quot;edgeStyle&quot;:&quot;elbowEdgeStyle&quot;,&quot;elbow&quot;:&quot;vertical&quot;,&quot;curved&quot;:0,&quot;rounded&quot;:0};" parent="1" vertex="1">
          <mxGeometry x="230" y="1680" width="100" height="300" as="geometry" />
        </mxCell>
        <mxCell id="aZN-3JPKK4wE17QASu8p-12" value="" style="html=1;points=[];perimeter=orthogonalPerimeter;outlineConnect=0;targetShapes=umlLifeline;portConstraint=eastwest;newEdgeStyle={&quot;edgeStyle&quot;:&quot;elbowEdgeStyle&quot;,&quot;elbow&quot;:&quot;vertical&quot;,&quot;curved&quot;:0,&quot;rounded&quot;:0};" parent="aZN-3JPKK4wE17QASu8p-10" vertex="1">
          <mxGeometry x="45" y="80" width="10" height="40" as="geometry" />
        </mxCell>
        <mxCell id="aZN-3JPKK4wE17QASu8p-11" value="записьНаСемирар()" style="html=1;verticalAlign=bottom;endArrow=block;edgeStyle=elbowEdgeStyle;elbow=vertical;curved=0;rounded=0;" parent="1" target="aZN-3JPKK4wE17QASu8p-12" edge="1">
          <mxGeometry x="0.0717" width="80" relative="1" as="geometry">
            <mxPoint x="135" y="1769.9523809523807" as="sourcePoint" />
            <mxPoint x="270" y="1770" as="targetPoint" />
            <Array as="points">
              <mxPoint x="200" y="1770" />
            </Array>
            <mxPoint as="offset" />
          </mxGeometry>
        </mxCell>
        <mxCell id="aZN-3JPKK4wE17QASu8p-13" value="с:Учебный курс" style="shape=umlLifeline;perimeter=lifelinePerimeter;whiteSpace=wrap;html=1;container=1;dropTarget=0;collapsible=0;recursiveResize=0;outlineConnect=0;portConstraint=eastwest;newEdgeStyle={&quot;edgeStyle&quot;:&quot;elbowEdgeStyle&quot;,&quot;elbow&quot;:&quot;vertical&quot;,&quot;curved&quot;:0,&quot;rounded&quot;:0};" parent="1" vertex="1">
          <mxGeometry x="414" y="1680" width="100" height="300" as="geometry" />
        </mxCell>
        <mxCell id="aZN-3JPKK4wE17QASu8p-14" value="" style="html=1;points=[];perimeter=orthogonalPerimeter;outlineConnect=0;targetShapes=umlLifeline;portConstraint=eastwest;newEdgeStyle={&quot;edgeStyle&quot;:&quot;elbowEdgeStyle&quot;,&quot;elbow&quot;:&quot;vertical&quot;,&quot;curved&quot;:0,&quot;rounded&quot;:0};" parent="aZN-3JPKK4wE17QASu8p-13" vertex="1">
          <mxGeometry x="45" y="90" width="10" height="40" as="geometry" />
        </mxCell>
        <mxCell id="aZN-3JPKK4wE17QASu8p-15" value="проверкаПодготовленности()" style="html=1;verticalAlign=bottom;endArrow=block;edgeStyle=elbowEdgeStyle;elbow=vertical;curved=0;rounded=0;" parent="1" source="aZN-3JPKK4wE17QASu8p-12" target="aZN-3JPKK4wE17QASu8p-14" edge="1">
          <mxGeometry width="80" relative="1" as="geometry">
            <mxPoint x="300" y="1790" as="sourcePoint" />
            <mxPoint x="380" y="1790" as="targetPoint" />
            <mxPoint as="offset" />
          </mxGeometry>
        </mxCell>
        <mxCell id="aZN-3JPKK4wE17QASu8p-16" value=":Данные по студенту" style="shape=umlLifeline;perimeter=lifelinePerimeter;whiteSpace=wrap;html=1;container=1;dropTarget=0;collapsible=0;recursiveResize=0;outlineConnect=0;portConstraint=eastwest;newEdgeStyle={&quot;edgeStyle&quot;:&quot;elbowEdgeStyle&quot;,&quot;elbow&quot;:&quot;vertical&quot;,&quot;curved&quot;:0,&quot;rounded&quot;:0};" parent="1" vertex="1">
          <mxGeometry x="590" y="1680" width="100" height="300" as="geometry" />
        </mxCell>
        <mxCell id="aZN-3JPKK4wE17QASu8p-18" value="" style="html=1;points=[];perimeter=orthogonalPerimeter;outlineConnect=0;targetShapes=umlLifeline;portConstraint=eastwest;newEdgeStyle={&quot;edgeStyle&quot;:&quot;elbowEdgeStyle&quot;,&quot;elbow&quot;:&quot;vertical&quot;,&quot;curved&quot;:0,&quot;rounded&quot;:0};" parent="aZN-3JPKK4wE17QASu8p-16" vertex="1">
          <mxGeometry x="45" y="110" width="10" height="40" as="geometry" />
        </mxCell>
        <mxCell id="aZN-3JPKK4wE17QASu8p-17" value="запросИсторииПройденных&lt;br&gt;Семинаров(студент)" style="html=1;verticalAlign=bottom;endArrow=block;edgeStyle=elbowEdgeStyle;elbow=vertical;curved=0;rounded=0;" parent="1" source="aZN-3JPKK4wE17QASu8p-14" target="aZN-3JPKK4wE17QASu8p-18" edge="1">
          <mxGeometry width="80" relative="1" as="geometry">
            <mxPoint x="580" y="1790" as="sourcePoint" />
            <mxPoint x="650" y="1850" as="targetPoint" />
          </mxGeometry>
        </mxCell>
        <mxCell id="-2DuBT9VBt3-Hz0C4V5M-1" value="d:Слушатель" style="shape=umlLifeline;perimeter=lifelinePerimeter;whiteSpace=wrap;html=1;container=1;dropTarget=0;collapsible=0;recursiveResize=0;outlineConnect=0;portConstraint=eastwest;newEdgeStyle={&quot;edgeStyle&quot;:&quot;elbowEdgeStyle&quot;,&quot;elbow&quot;:&quot;vertical&quot;,&quot;curved&quot;:0,&quot;rounded&quot;:0};" vertex="1" parent="1">
          <mxGeometry x="727" y="1680" width="100" height="250" as="geometry" />
        </mxCell>
        <mxCell id="-2DuBT9VBt3-Hz0C4V5M-3" value="" style="html=1;points=[];perimeter=orthogonalPerimeter;outlineConnect=0;targetShapes=umlLifeline;portConstraint=eastwest;newEdgeStyle={&quot;edgeStyle&quot;:&quot;elbowEdgeStyle&quot;,&quot;elbow&quot;:&quot;vertical&quot;,&quot;curved&quot;:0,&quot;rounded&quot;:0};" vertex="1" parent="-2DuBT9VBt3-Hz0C4V5M-1">
          <mxGeometry x="45" y="120" width="10" height="80" as="geometry" />
        </mxCell>
        <mxCell id="-2DuBT9VBt3-Hz0C4V5M-5" value="определениеСтатуса&lt;br&gt;Подготовленности()" style="html=1;verticalAlign=bottom;endArrow=block;edgeStyle=elbowEdgeStyle;elbow=vertical;curved=0;rounded=0;" edge="1" parent="-2DuBT9VBt3-Hz0C4V5M-1" source="-2DuBT9VBt3-Hz0C4V5M-3" target="-2DuBT9VBt3-Hz0C4V5M-3">
          <mxGeometry x="-0.3333" y="38" width="80" relative="1" as="geometry">
            <mxPoint x="123" y="130" as="sourcePoint" />
            <mxPoint x="203" y="130" as="targetPoint" />
            <mxPoint as="offset" />
          </mxGeometry>
        </mxCell>
        <mxCell id="-2DuBT9VBt3-Hz0C4V5M-7" value="" style="shape=umlDestroy;whiteSpace=wrap;html=1;strokeWidth=3;targetShapes=umlLifeline;" vertex="1" parent="-2DuBT9VBt3-Hz0C4V5M-1">
          <mxGeometry x="35" y="230" width="30" height="30" as="geometry" />
        </mxCell>
        <mxCell id="-2DuBT9VBt3-Hz0C4V5M-4" value="передачаИстории()" style="html=1;verticalAlign=bottom;endArrow=block;edgeStyle=elbowEdgeStyle;elbow=vertical;curved=0;rounded=0;" edge="1" parent="1" source="aZN-3JPKK4wE17QASu8p-18" target="-2DuBT9VBt3-Hz0C4V5M-3">
          <mxGeometry width="80" relative="1" as="geometry">
            <mxPoint x="645" y="1814" as="sourcePoint" />
            <mxPoint x="785" y="1814" as="targetPoint" />
            <Array as="points">
              <mxPoint x="780" y="1814" />
            </Array>
          </mxGeometry>
        </mxCell>
        <mxCell id="-2DuBT9VBt3-Hz0C4V5M-8" value="сообщениеРезультатЗаписи(статус)" style="html=1;verticalAlign=bottom;endArrow=open;dashed=1;endSize=8;edgeStyle=elbowEdgeStyle;elbow=vertical;curved=0;rounded=0;" edge="1" parent="1">
          <mxGeometry x="0.2307" y="-8" relative="1" as="geometry">
            <mxPoint x="772" y="1868.1627906976746" as="sourcePoint" />
            <mxPoint x="135" y="1868.1627906976746" as="targetPoint" />
            <mxPoint as="offset" />
          </mxGeometry>
        </mxCell>
        <mxCell id="-2DuBT9VBt3-Hz0C4V5M-10" value="а:Студент" style="shape=umlActor;verticalLabelPosition=bottom;verticalAlign=top;html=1;" vertex="1" parent="1">
          <mxGeometry x="449" y="2250" width="30" height="60" as="geometry" />
        </mxCell>
        <mxCell id="-2DuBT9VBt3-Hz0C4V5M-11" value="b:Семинар курса" style="html=1;whiteSpace=wrap;" vertex="1" parent="1">
          <mxGeometry x="229" y="2140" width="110" height="50" as="geometry" />
        </mxCell>
        <mxCell id="-2DuBT9VBt3-Hz0C4V5M-12" value="с:Учебный курс" style="html=1;whiteSpace=wrap;" vertex="1" parent="1">
          <mxGeometry x="230" y="2370" width="110" height="50" as="geometry" />
        </mxCell>
        <mxCell id="-2DuBT9VBt3-Hz0C4V5M-13" value=":Данные по студенту" style="html=1;whiteSpace=wrap;" vertex="1" parent="1">
          <mxGeometry x="630" y="2370" width="110" height="50" as="geometry" />
        </mxCell>
        <mxCell id="-2DuBT9VBt3-Hz0C4V5M-14" value="d:Слушатель" style="html=1;whiteSpace=wrap;" vertex="1" parent="1">
          <mxGeometry x="635" y="2130" width="110" height="50" as="geometry" />
        </mxCell>
        <mxCell id="-2DuBT9VBt3-Hz0C4V5M-15" value="" style="endArrow=none;html=1;rounded=0;exitX=1;exitY=0.5;exitDx=0;exitDy=0;entryX=0;entryY=0.3333333333333333;entryDx=0;entryDy=0;entryPerimeter=0;" edge="1" parent="1" source="-2DuBT9VBt3-Hz0C4V5M-11" target="-2DuBT9VBt3-Hz0C4V5M-10">
          <mxGeometry width="50" height="50" relative="1" as="geometry">
            <mxPoint x="440" y="2170" as="sourcePoint" />
            <mxPoint x="490" y="2120" as="targetPoint" />
          </mxGeometry>
        </mxCell>
        <mxCell id="-2DuBT9VBt3-Hz0C4V5M-16" value="" style="endArrow=none;html=1;rounded=0;exitX=0.5;exitY=1;exitDx=0;exitDy=0;entryX=0.5;entryY=0;entryDx=0;entryDy=0;" edge="1" parent="1" source="-2DuBT9VBt3-Hz0C4V5M-11" target="-2DuBT9VBt3-Hz0C4V5M-12">
          <mxGeometry width="50" height="50" relative="1" as="geometry">
            <mxPoint x="340" y="2175" as="sourcePoint" />
            <mxPoint x="459" y="2280" as="targetPoint" />
          </mxGeometry>
        </mxCell>
        <mxCell id="-2DuBT9VBt3-Hz0C4V5M-17" value="" style="endArrow=none;html=1;rounded=0;exitX=0;exitY=0.5;exitDx=0;exitDy=0;entryX=1;entryY=0.5;entryDx=0;entryDy=0;" edge="1" parent="1" source="-2DuBT9VBt3-Hz0C4V5M-13" target="-2DuBT9VBt3-Hz0C4V5M-12">
          <mxGeometry width="50" height="50" relative="1" as="geometry">
            <mxPoint x="285" y="2200" as="sourcePoint" />
            <mxPoint x="295" y="2380" as="targetPoint" />
          </mxGeometry>
        </mxCell>
        <mxCell id="-2DuBT9VBt3-Hz0C4V5M-18" value="" style="endArrow=none;html=1;rounded=0;exitX=0.5;exitY=0;exitDx=0;exitDy=0;entryX=0.5;entryY=1;entryDx=0;entryDy=0;" edge="1" parent="1" source="-2DuBT9VBt3-Hz0C4V5M-13" target="-2DuBT9VBt3-Hz0C4V5M-14">
          <mxGeometry width="50" height="50" relative="1" as="geometry">
            <mxPoint x="640" y="2405" as="sourcePoint" />
            <mxPoint x="350" y="2405" as="targetPoint" />
          </mxGeometry>
        </mxCell>
        <mxCell id="-2DuBT9VBt3-Hz0C4V5M-19" value="" style="endArrow=none;html=1;rounded=0;exitX=1;exitY=0.3333333333333333;exitDx=0;exitDy=0;entryX=0;entryY=0.5;entryDx=0;entryDy=0;exitPerimeter=0;" edge="1" parent="1" source="-2DuBT9VBt3-Hz0C4V5M-10" target="-2DuBT9VBt3-Hz0C4V5M-14">
          <mxGeometry width="50" height="50" relative="1" as="geometry">
            <mxPoint x="695" y="2380" as="sourcePoint" />
            <mxPoint x="700" y="2190" as="targetPoint" />
          </mxGeometry>
        </mxCell>
        <mxCell id="-2DuBT9VBt3-Hz0C4V5M-20" value="" style="endArrow=none;html=1;rounded=0;exitX=0.25;exitY=0;exitDx=0;exitDy=0;entryX=0.702;entryY=-0.007;entryDx=0;entryDy=0;entryPerimeter=0;edgeStyle=orthogonalEdgeStyle;curved=1;" edge="1" parent="1" source="-2DuBT9VBt3-Hz0C4V5M-14" target="-2DuBT9VBt3-Hz0C4V5M-14">
          <mxGeometry width="50" height="50" relative="1" as="geometry">
            <mxPoint x="489" y="2280" as="sourcePoint" />
            <mxPoint x="645" y="2165" as="targetPoint" />
            <Array as="points">
              <mxPoint x="690" y="2000" />
            </Array>
          </mxGeometry>
        </mxCell>
        <mxCell id="-2DuBT9VBt3-Hz0C4V5M-22" value="" style="endArrow=classic;html=1;rounded=0;" edge="1" parent="1">
          <mxGeometry width="50" height="50" relative="1" as="geometry">
            <mxPoint x="430" y="2230" as="sourcePoint" />
            <mxPoint x="360" y="2170" as="targetPoint" />
          </mxGeometry>
        </mxCell>
        <mxCell id="-2DuBT9VBt3-Hz0C4V5M-23" value="1: записьНаСеминар()" style="edgeLabel;html=1;align=center;verticalAlign=middle;resizable=0;points=[];" vertex="1" connectable="0" parent="-2DuBT9VBt3-Hz0C4V5M-22">
          <mxGeometry x="-0.1815" relative="1" as="geometry">
            <mxPoint x="48" y="-26" as="offset" />
          </mxGeometry>
        </mxCell>
        <mxCell id="-2DuBT9VBt3-Hz0C4V5M-24" value="" style="endArrow=classic;html=1;rounded=0;" edge="1" parent="1">
          <mxGeometry width="50" height="50" relative="1" as="geometry">
            <mxPoint x="270" y="2230" as="sourcePoint" />
            <mxPoint x="270" y="2330" as="targetPoint" />
          </mxGeometry>
        </mxCell>
        <mxCell id="-2DuBT9VBt3-Hz0C4V5M-25" value="2: проверкаПодготовленности()" style="edgeLabel;html=1;align=center;verticalAlign=middle;resizable=0;points=[];" vertex="1" connectable="0" parent="-2DuBT9VBt3-Hz0C4V5M-24">
          <mxGeometry x="0.3343" relative="1" as="geometry">
            <mxPoint x="-90" y="-27" as="offset" />
          </mxGeometry>
        </mxCell>
        <mxCell id="-2DuBT9VBt3-Hz0C4V5M-26" value="" style="endArrow=classic;html=1;rounded=0;" edge="1" parent="1">
          <mxGeometry width="50" height="50" relative="1" as="geometry">
            <mxPoint x="420" y="2410" as="sourcePoint" />
            <mxPoint x="530" y="2410" as="targetPoint" />
          </mxGeometry>
        </mxCell>
        <mxCell id="-2DuBT9VBt3-Hz0C4V5M-27" value="3: запросИсторииПройденныхСеминаров(студент)" style="edgeLabel;html=1;align=center;verticalAlign=middle;resizable=0;points=[];" vertex="1" connectable="0" parent="-2DuBT9VBt3-Hz0C4V5M-26">
          <mxGeometry x="-0.3247" relative="1" as="geometry">
            <mxPoint x="22" y="10" as="offset" />
          </mxGeometry>
        </mxCell>
        <mxCell id="-2DuBT9VBt3-Hz0C4V5M-29" value="" style="endArrow=classic;html=1;rounded=0;" edge="1" parent="1">
          <mxGeometry width="50" height="50" relative="1" as="geometry">
            <mxPoint x="700" y="2320" as="sourcePoint" />
            <mxPoint x="700" y="2220" as="targetPoint" />
          </mxGeometry>
        </mxCell>
        <mxCell id="-2DuBT9VBt3-Hz0C4V5M-30" value="4: передачаИстории()" style="edgeLabel;html=1;align=center;verticalAlign=middle;resizable=0;points=[];" vertex="1" connectable="0" parent="-2DuBT9VBt3-Hz0C4V5M-29">
          <mxGeometry x="-0.3324" y="1" relative="1" as="geometry">
            <mxPoint x="61" y="-27" as="offset" />
          </mxGeometry>
        </mxCell>
        <mxCell id="-2DuBT9VBt3-Hz0C4V5M-31" value="" style="endArrow=classic;html=1;rounded=0;" edge="1" parent="1">
          <mxGeometry width="50" height="50" relative="1" as="geometry">
            <mxPoint x="720" y="2060" as="sourcePoint" />
            <mxPoint x="660" y="2060" as="targetPoint" />
          </mxGeometry>
        </mxCell>
        <mxCell id="-2DuBT9VBt3-Hz0C4V5M-33" value="5: определениеСтатусаПодготовленности()" style="edgeLabel;html=1;align=center;verticalAlign=middle;resizable=0;points=[];" vertex="1" connectable="0" parent="-2DuBT9VBt3-Hz0C4V5M-31">
          <mxGeometry x="0.3127" y="1" relative="1" as="geometry">
            <mxPoint x="5" y="-11" as="offset" />
          </mxGeometry>
        </mxCell>
        <mxCell id="-2DuBT9VBt3-Hz0C4V5M-35" value="6: сообщениеРезультата&lt;br&gt;Записи(статус)" style="html=1;verticalAlign=bottom;endArrow=open;dashed=1;endSize=8;rounded=0;curved=1;" edge="1" parent="1">
          <mxGeometry x="0.0811" y="65" relative="1" as="geometry">
            <mxPoint x="620" y="2200" as="sourcePoint" />
            <mxPoint x="550" y="2250" as="targetPoint" />
            <mxPoint as="offset" />
          </mxGeometry>
        </mxCell>
      </root>
    </mxGraphModel>
  </diagram>
</mxfile>
